%TF.GenerationSoftware,KiCad,Pcbnew,9.0.6*%
%TF.CreationDate,2026-03-26T16:25:25+01:00*%
%TF.ProjectId,circ,63697263-2e6b-4696-9361-645f70636258,rev?*%
%TF.SameCoordinates,Original*%
%TF.FileFunction,Legend,Top*%
%TF.FilePolarity,Positive*%
%FSLAX46Y46*%
G04 Gerber Fmt 4.6, Leading zero omitted, Abs format (unit mm)*
G04 Created by KiCad (PCBNEW 9.0.6) date 2026-03-26 16:25:25*
%MOMM*%
%LPD*%
G01*
G04 APERTURE LIST*
%ADD10C,0.100000*%
G04 APERTURE END LIST*
D10*
X117333333Y-109564895D02*
X117485714Y-109564895D01*
X117485714Y-109564895D02*
X117561904Y-109602990D01*
X117561904Y-109602990D02*
X117638095Y-109679180D01*
X117638095Y-109679180D02*
X117676190Y-109831561D01*
X117676190Y-109831561D02*
X117676190Y-110098228D01*
X117676190Y-110098228D02*
X117638095Y-110250609D01*
X117638095Y-110250609D02*
X117561904Y-110326800D01*
X117561904Y-110326800D02*
X117485714Y-110364895D01*
X117485714Y-110364895D02*
X117333333Y-110364895D01*
X117333333Y-110364895D02*
X117257142Y-110326800D01*
X117257142Y-110326800D02*
X117180952Y-110250609D01*
X117180952Y-110250609D02*
X117142856Y-110098228D01*
X117142856Y-110098228D02*
X117142856Y-109831561D01*
X117142856Y-109831561D02*
X117180952Y-109679180D01*
X117180952Y-109679180D02*
X117257142Y-109602990D01*
X117257142Y-109602990D02*
X117333333Y-109564895D01*
X118361904Y-109831561D02*
X118361904Y-110364895D01*
X118019047Y-109831561D02*
X118019047Y-110250609D01*
X118019047Y-110250609D02*
X118057142Y-110326800D01*
X118057142Y-110326800D02*
X118133332Y-110364895D01*
X118133332Y-110364895D02*
X118247618Y-110364895D01*
X118247618Y-110364895D02*
X118323809Y-110326800D01*
X118323809Y-110326800D02*
X118361904Y-110288704D01*
X118628571Y-109831561D02*
X118933333Y-109831561D01*
X118742857Y-109564895D02*
X118742857Y-110250609D01*
X118742857Y-110250609D02*
X118780952Y-110326800D01*
X118780952Y-110326800D02*
X118857142Y-110364895D01*
X118857142Y-110364895D02*
X118933333Y-110364895D01*
X111638095Y-110364895D02*
X111638095Y-109564895D01*
X112019047Y-109831561D02*
X112019047Y-110364895D01*
X112019047Y-109907752D02*
X112057142Y-109869657D01*
X112057142Y-109869657D02*
X112133332Y-109831561D01*
X112133332Y-109831561D02*
X112247618Y-109831561D01*
X112247618Y-109831561D02*
X112323809Y-109869657D01*
X112323809Y-109869657D02*
X112361904Y-109945847D01*
X112361904Y-109945847D02*
X112361904Y-110364895D01*
M02*
