%TF.GenerationSoftware,KiCad,Pcbnew,9.0.6*%
%TF.CreationDate,2026-03-26T16:25:25+01:00*%
%TF.ProjectId,circ,63697263-2e6b-4696-9361-645f70636258,rev?*%
%TF.SameCoordinates,Original*%
%TF.FileFunction,Copper,L1,Top*%
%TF.FilePolarity,Positive*%
%FSLAX46Y46*%
G04 Gerber Fmt 4.6, Leading zero omitted, Abs format (unit mm)*
G04 Created by KiCad (PCBNEW 9.0.6) date 2026-03-26 16:25:25*
%MOMM*%
%LPD*%
G01*
G04 APERTURE LIST*
G04 Aperture macros list*
%AMRoundRect*
0 Rectangle with rounded corners*
0 $1 Rounding radius*
0 $2 $3 $4 $5 $6 $7 $8 $9 X,Y pos of 4 corners*
0 Add a 4 corners polygon primitive as box body*
4,1,4,$2,$3,$4,$5,$6,$7,$8,$9,$2,$3,0*
0 Add four circle primitives for the rounded corners*
1,1,$1+$1,$2,$3*
1,1,$1+$1,$4,$5*
1,1,$1+$1,$6,$7*
1,1,$1+$1,$8,$9*
0 Add four rect primitives between the rounded corners*
20,1,$1+$1,$2,$3,$4,$5,0*
20,1,$1+$1,$4,$5,$6,$7,0*
20,1,$1+$1,$6,$7,$8,$9,0*
20,1,$1+$1,$8,$9,$2,$3,0*%
G04 Aperture macros list end*
%TA.AperFunction,ComponentPad*%
%ADD10RoundRect,0.250000X-0.550000X-0.550000X0.550000X-0.550000X0.550000X0.550000X-0.550000X0.550000X0*%
%TD*%
%TA.AperFunction,ComponentPad*%
%ADD11C,1.600000*%
%TD*%
%TA.AperFunction,ViaPad*%
%ADD12C,0.600000*%
%TD*%
%TA.AperFunction,Conductor*%
%ADD13C,0.200000*%
%TD*%
G04 APERTURE END LIST*
D10*
%TO.P,In,1,Pin_1*%
%TO.N,Net-(J1-Pin_1)*%
X113200000Y-112000000D03*
D11*
%TO.P,In,2,Pin_2*%
X116800000Y-112000000D03*
%TD*%
D12*
%TO.N,Net-(J1-Pin_1)*%
X115000000Y-107000000D03*
%TD*%
D13*
%TO.N,Net-(J1-Pin_1)*%
X112419060Y-107580940D02*
X112140731Y-107280191D01*
X111487406Y-103770890D02*
X111640673Y-103382233D01*
X117356636Y-107660092D02*
X117023184Y-107931089D01*
X115848758Y-101281346D02*
X116262138Y-101393017D01*
X116661155Y-101550576D02*
X117040723Y-101752208D01*
X115780771Y-102086124D02*
X116157617Y-102205264D01*
X111278825Y-106656774D02*
X111119689Y-106260789D01*
X118126341Y-106640830D02*
X117912097Y-107010075D01*
X113931250Y-102659765D02*
X114272618Y-102522764D01*
X118446412Y-102496035D02*
X118695042Y-102866667D01*
X112927457Y-106331942D02*
X112750728Y-106027208D01*
X115000000Y-107400000D02*
X115000000Y-107000000D01*
X114230508Y-108121951D02*
X113857081Y-108013629D01*
X119192993Y-104108752D02*
X119269814Y-104551224D01*
X115857855Y-108480453D02*
X115433005Y-108566116D01*
X113144978Y-106607385D02*
X112927457Y-106331942D01*
X113803918Y-108418206D02*
X113425622Y-108269230D01*
X116304052Y-100986542D02*
X116719140Y-101138748D01*
X117395982Y-101995533D02*
X117722361Y-102277639D01*
X114633439Y-107784308D02*
X114270993Y-107720691D01*
X111478163Y-107033333D02*
X111278825Y-106656774D01*
X113682802Y-107049600D02*
X113398568Y-106848151D01*
X112728716Y-107848100D02*
X112419060Y-107580940D01*
X118294134Y-106249300D02*
X118126341Y-106640830D01*
X117700000Y-105000000D02*
X117681516Y-105385544D01*
X113434240Y-102016694D02*
X113802527Y-101842522D01*
X112625348Y-108268429D02*
X112292251Y-108007259D01*
X114318719Y-107320228D02*
X113991674Y-107207925D01*
X112252500Y-103103538D02*
X112495368Y-102781090D01*
X115000000Y-107800000D02*
X114633439Y-107784308D01*
X111378839Y-104173494D02*
X111487406Y-103770890D01*
X117109127Y-108356657D02*
X116723138Y-108578134D01*
X115000000Y-109000000D02*
X114581189Y-108984718D01*
X113425622Y-108269230D02*
X113065683Y-108078447D01*
X117585241Y-102709676D02*
X117848790Y-103033622D01*
X111715391Y-107386408D02*
X111478163Y-107033333D01*
X112916667Y-101391561D02*
X113302552Y-101187470D01*
X115737627Y-102487873D02*
X116091409Y-102610149D01*
X113861517Y-102251458D02*
X114227857Y-102118321D01*
X114190009Y-101713735D02*
X114591102Y-101632426D01*
X112517394Y-106433333D02*
X112343846Y-106100215D01*
X115439716Y-100816378D02*
X115876001Y-100878738D01*
X117848790Y-103033622D02*
X118071851Y-103387768D01*
X112116548Y-104620386D02*
X112182716Y-104245111D01*
X113752017Y-101433469D02*
X114157599Y-101309201D01*
X117492209Y-101569768D02*
X117841575Y-101844112D01*
X119283074Y-105450169D02*
X119219077Y-105896792D01*
X117227386Y-107227386D02*
X116922672Y-107505674D01*
X111300000Y-105000000D02*
X111316167Y-104584932D01*
X111987786Y-107712209D02*
X111715391Y-107386408D01*
X115447058Y-108967751D02*
X115000000Y-109000000D01*
X118482117Y-105422806D02*
X118413234Y-105841287D01*
X111810830Y-105786060D02*
X111731697Y-105396844D01*
X112105240Y-106519287D02*
X111936024Y-106162013D01*
X118952607Y-106759814D02*
X118752777Y-107166667D01*
X112292251Y-108007259D02*
X111987786Y-107712209D01*
X112495368Y-102781090D02*
X112775989Y-102489610D01*
X116719140Y-101138748D02*
X117116667Y-101333826D01*
X118082650Y-107458331D02*
X117793072Y-107793072D01*
X116215020Y-107933318D02*
X115823907Y-108074864D01*
X111081647Y-103726850D02*
X111230102Y-103321533D01*
X112618713Y-105699209D02*
X112534445Y-105354493D01*
X117492452Y-106912525D02*
X117227386Y-107227386D01*
X118332465Y-107093926D02*
X118082650Y-107458331D01*
X113583333Y-107453739D02*
X113270103Y-107254446D01*
X117841575Y-101844112D02*
X118160843Y-102153964D01*
X112500000Y-105000000D02*
X112516448Y-104642919D01*
X119269814Y-104551224D02*
X119300000Y-105000000D01*
X112701112Y-103950133D02*
X112866275Y-103628738D01*
X113090429Y-102233508D02*
X113434240Y-102016694D01*
X117722361Y-102277639D02*
X118015636Y-102595111D01*
X118065217Y-104596457D02*
X118100000Y-105000000D01*
X113327128Y-103069403D02*
X113613994Y-102843332D01*
X111936024Y-106162013D02*
X111810830Y-105786060D01*
X117912097Y-107010075D02*
X117654334Y-107351535D01*
X118752777Y-107166667D02*
X118511134Y-107550988D01*
X112100000Y-105000000D02*
X112116548Y-104620386D01*
X115912039Y-109290807D02*
X115459228Y-109369266D01*
X113498587Y-107860704D02*
X113160344Y-107665202D01*
X111700000Y-105000000D02*
X111716424Y-104601302D01*
X118015636Y-102595111D02*
X118271984Y-102944076D01*
X118900000Y-105000000D02*
X118882576Y-105437461D01*
X118511134Y-107550988D02*
X118230203Y-107908488D01*
X113802527Y-101842522D02*
X114190009Y-101713735D01*
X113516667Y-102430791D02*
X113861517Y-102251458D01*
X116314039Y-108755307D02*
X115886905Y-108885784D01*
X112866275Y-103628738D02*
X113076274Y-103333082D01*
X113857081Y-108013629D02*
X113498587Y-107860704D01*
X118160843Y-102153964D02*
X118446412Y-102496035D01*
X114575335Y-101230992D02*
X115000000Y-101200000D01*
X118071851Y-103387768D02*
X118250980Y-103767066D01*
X115426265Y-101216796D02*
X115848758Y-101281346D01*
X117663520Y-104617044D02*
X117700000Y-105000000D01*
X115000000Y-110200000D02*
X113200000Y-112000000D01*
X115876001Y-100878738D02*
X116304052Y-100986542D01*
X111406694Y-105820149D02*
X111330363Y-105413469D01*
X113199081Y-102652996D02*
X113516667Y-102430791D01*
X114657151Y-107384570D02*
X114318719Y-107320228D01*
X113613994Y-102843332D02*
X113931250Y-102659765D01*
X115416596Y-108164362D02*
X115000000Y-108200000D01*
X116353494Y-109165628D02*
X115912039Y-109290807D01*
X111119689Y-106260789D02*
X111002637Y-105849666D01*
X116262138Y-101393017D02*
X116661155Y-101550576D01*
X117793072Y-107793072D02*
X117467238Y-108093819D01*
X112666219Y-103209227D02*
X112914035Y-102914035D01*
X112750728Y-106027208D02*
X112618713Y-105699209D01*
X117681516Y-105385544D02*
X117608076Y-105765800D01*
X111892869Y-103821621D02*
X112050750Y-103452114D01*
X116268394Y-108344481D02*
X115857855Y-108480453D01*
X117655811Y-103466667D02*
X117840930Y-103823248D01*
X118081741Y-105405719D02*
X118010469Y-105806653D01*
X118788291Y-104135347D02*
X118868380Y-104564138D01*
X112297652Y-103880651D02*
X112459659Y-103533333D01*
X113302552Y-101187470D02*
X113708309Y-101024584D01*
X115000000Y-102000000D02*
X115392666Y-102017403D01*
X110915830Y-104570736D02*
X110976553Y-104144790D01*
X117840930Y-103823248D02*
X117978271Y-104201975D01*
X115817355Y-101683860D02*
X116213840Y-101799367D01*
X112732332Y-106740043D02*
X112517394Y-106433333D01*
X117573186Y-104244445D02*
X117663520Y-104617044D01*
X112516448Y-104642919D02*
X112583822Y-104290546D01*
X113991674Y-107207925D02*
X113682802Y-107049600D01*
X111330363Y-105413469D02*
X111300000Y-105000000D01*
X114631275Y-102435463D02*
X115000000Y-102400000D01*
X111230102Y-103321533D02*
X111420428Y-102933333D01*
X116732404Y-103000699D02*
X117006172Y-103261642D01*
X111731697Y-105396844D02*
X111700000Y-105000000D01*
X115000000Y-108600000D02*
X114596128Y-108584462D01*
X112214914Y-105746262D02*
X112133072Y-105377438D01*
X115000000Y-100800000D02*
X115439716Y-100816378D01*
X115886905Y-108885784D02*
X115447058Y-108967751D01*
X115392666Y-102017403D02*
X115780771Y-102086124D01*
X114227857Y-102118321D02*
X114609509Y-102033927D01*
X116151833Y-107522161D02*
X115783729Y-107669135D01*
X115459228Y-109369266D02*
X115000000Y-109400000D01*
X114596128Y-108584462D02*
X114195746Y-108523668D01*
X119300000Y-105000000D02*
X119283074Y-105450169D01*
X113076274Y-103333082D02*
X113327128Y-103069403D01*
X118539521Y-106704543D02*
X118332465Y-107093926D01*
X115410752Y-101617154D02*
X115817355Y-101683860D01*
X118903884Y-103261879D02*
X119070522Y-103677407D01*
X115000000Y-108200000D02*
X114613355Y-108184305D01*
X117467238Y-108093819D02*
X117109127Y-108356657D01*
X112983333Y-108492969D02*
X112625348Y-108268429D01*
X112459659Y-103533333D02*
X112666219Y-103209227D01*
X114157599Y-101309201D02*
X114575335Y-101230992D01*
X117040723Y-101752208D02*
X117395982Y-101995533D01*
X117156676Y-102843324D02*
X117426339Y-103138205D01*
X117431198Y-103889709D02*
X117573186Y-104244445D01*
X118413234Y-105841287D02*
X118294134Y-106249300D01*
X115397188Y-107762502D02*
X115000000Y-107800000D01*
X111420428Y-102933333D02*
X111650670Y-102566569D01*
X115000000Y-101200000D02*
X115426265Y-101216796D01*
X115433005Y-108566116D02*
X115000000Y-108600000D01*
X118868380Y-104564138D02*
X118900000Y-105000000D01*
X115000000Y-102400000D02*
X115371312Y-102417466D01*
X117301976Y-106479390D02*
X117074876Y-106797890D01*
X115371312Y-102417466D02*
X115737627Y-102487873D01*
X111650670Y-102566569D02*
X111918426Y-102225338D01*
X118660919Y-103718989D02*
X118788291Y-104135347D01*
X112914035Y-102914035D02*
X113199081Y-102652996D01*
X116778795Y-108995239D02*
X116353494Y-109165628D01*
X118882576Y-105437461D02*
X118816146Y-105871011D01*
X116494135Y-107324919D02*
X116151833Y-107522161D01*
X112050750Y-103452114D02*
X112252500Y-103103538D01*
X117654334Y-107351535D02*
X117356636Y-107660092D01*
X115000000Y-109400000D02*
X115000000Y-110200000D01*
X110929090Y-105427870D02*
X110900000Y-105000000D01*
X114129543Y-100904822D02*
X114561677Y-100829638D01*
X111897361Y-106949518D02*
X111692157Y-106592973D01*
X112984746Y-107015254D02*
X112732332Y-106740043D01*
X110976553Y-104144790D02*
X111081647Y-103726850D01*
X112343846Y-106100215D02*
X112214914Y-105746262D01*
X117912949Y-108235157D02*
X117562744Y-108527314D01*
X116516667Y-102373056D02*
X116851649Y-102586884D01*
X118383359Y-104166077D02*
X118466845Y-104579049D01*
X115000000Y-107400000D02*
X114657151Y-107384570D01*
X116594358Y-101962205D02*
X116953269Y-102170202D01*
X117562744Y-108527314D02*
X117183333Y-108781644D01*
X114195746Y-108523668D02*
X113803918Y-108418206D01*
X114165581Y-108925632D02*
X113757752Y-108823247D01*
X118488037Y-103320250D02*
X118660919Y-103718989D01*
X118500000Y-105000000D02*
X118482117Y-105422806D01*
X115000000Y-101600000D02*
X115410752Y-101617154D01*
X116803844Y-107081747D02*
X116494135Y-107324919D01*
X111716424Y-104601302D02*
X111780954Y-104206577D01*
X116091409Y-102610149D02*
X116425326Y-102782150D01*
X112534445Y-105354493D02*
X112500000Y-105000000D01*
X113160344Y-107665202D02*
X112847402Y-107429781D01*
X114272618Y-102522764D02*
X114631275Y-102435463D01*
X119108564Y-106334953D02*
X118952607Y-106759814D01*
X111316167Y-104584932D02*
X111378839Y-104173494D01*
X118701371Y-106295166D02*
X118539521Y-106704543D01*
X112554813Y-101634489D02*
X112916667Y-101391561D01*
X113918919Y-107609960D02*
X113583333Y-107453739D01*
X114270993Y-107720691D02*
X113918919Y-107609960D01*
X111640673Y-103382233D02*
X111836880Y-103012480D01*
X111527858Y-106214955D02*
X111406694Y-105820149D01*
X117480815Y-106132950D02*
X117301976Y-106479390D01*
X112775989Y-102489610D02*
X113090429Y-102233508D01*
X117074876Y-106797890D02*
X116803844Y-107081747D01*
X112315806Y-106852765D02*
X112105240Y-106519287D01*
X112073716Y-102666367D02*
X112348350Y-102348350D01*
X118010469Y-105806653D02*
X117887124Y-106195886D01*
X110900000Y-105000000D02*
X110915830Y-104570736D01*
X111692157Y-106592973D02*
X111527858Y-106214955D01*
X117608076Y-105765800D02*
X117480815Y-106132950D01*
X114613355Y-108184305D02*
X114230508Y-108121951D01*
X117426339Y-103138205D02*
X117655811Y-103466667D01*
X111836880Y-103012480D02*
X112073716Y-102666367D01*
X116658704Y-108160397D02*
X116268394Y-108344481D01*
X115823907Y-108074864D02*
X115416596Y-108164362D01*
X113363638Y-101602060D02*
X113752017Y-101433469D01*
X118816146Y-105871011D02*
X118701371Y-106295166D01*
X112997279Y-101812688D02*
X113363638Y-101602060D01*
X116953269Y-102170202D02*
X117285223Y-102420517D01*
X113708309Y-101024584D02*
X114129543Y-100904822D01*
X115783729Y-107669135D02*
X115397188Y-107762502D01*
X119219077Y-105896792D02*
X119108564Y-106334953D01*
X112348350Y-102348350D02*
X112657460Y-102062547D01*
X117116667Y-101333826D02*
X117492209Y-101569768D01*
X113398568Y-106848151D02*
X113144978Y-106607385D01*
X117240794Y-103559929D02*
X117431198Y-103889709D01*
X117023184Y-107931089D02*
X116658704Y-108160397D01*
X116723138Y-108578134D02*
X116314039Y-108755307D01*
X117713546Y-106566667D02*
X117492452Y-106912525D01*
X114581189Y-108984718D02*
X114165581Y-108925632D01*
X114561677Y-100829638D02*
X115000000Y-100800000D01*
X116922672Y-107505674D02*
X116583333Y-107742414D01*
X112583822Y-104290546D02*
X112701112Y-103950133D01*
X118230203Y-107908488D02*
X117912949Y-108235157D01*
X119070522Y-103677407D02*
X119192993Y-104108752D01*
X116213840Y-101799367D02*
X116594358Y-101962205D01*
X113757752Y-108823247D02*
X113362207Y-108678543D01*
X111002637Y-105849666D02*
X110929090Y-105427870D01*
X114591102Y-101632426D02*
X115000000Y-101600000D01*
X117183333Y-108781644D02*
X116778795Y-108995239D01*
X118466845Y-104579049D02*
X118500000Y-105000000D01*
X114609509Y-102033927D02*
X115000000Y-102000000D01*
X111780954Y-104206577D02*
X111892869Y-103821621D01*
X118271984Y-102944076D02*
X118488037Y-103320250D01*
X118100000Y-105000000D02*
X118081741Y-105405719D01*
X116851649Y-102586884D02*
X117156676Y-102843324D01*
X117978271Y-104201975D02*
X118065217Y-104596457D01*
X117006172Y-103261642D02*
X117240794Y-103559929D01*
X116425326Y-102782150D02*
X116732404Y-103000699D01*
X112657460Y-102062547D02*
X112997279Y-101812688D01*
X112133072Y-105377438D02*
X112100000Y-105000000D01*
X113362207Y-108678543D02*
X112983333Y-108492969D01*
X111918426Y-102225338D02*
X112220878Y-101913472D01*
X113270103Y-107254446D02*
X112984746Y-107015254D01*
X112182716Y-104245111D02*
X112297652Y-103880651D01*
X116583333Y-107742414D02*
X116215020Y-107933318D01*
X112220878Y-101913472D02*
X112554813Y-101634489D01*
X112564461Y-107157699D02*
X112315806Y-106852765D01*
X117887124Y-106195886D02*
X117713546Y-106566667D01*
X112140731Y-107280191D02*
X111897361Y-106949518D01*
X117285223Y-102420517D02*
X117585241Y-102709676D01*
X118250980Y-103767066D02*
X118383359Y-104166077D01*
X113065683Y-108078447D02*
X112728716Y-107848100D01*
X116157617Y-102205264D02*
X116516667Y-102373056D01*
X112847402Y-107429781D02*
X112564461Y-107157699D01*
X118695042Y-102866667D02*
X118903884Y-103261879D01*
%TD*%
M02*
