%TF.GenerationSoftware,KiCad,Pcbnew,7.0.9*%
%TF.CreationDate,2026-02-16T10:34:39-04:00*%
%TF.ProjectId,phantomArc_dev1_2024,7068616e-746f-46d4-9172-635f64657631,v0.2*%
%TF.SameCoordinates,Original*%
%TF.FileFunction,Legend,Top*%
%TF.FilePolarity,Positive*%
%FSLAX46Y46*%
G04 Gerber Fmt 4.6, Leading zero omitted, Abs format (unit mm)*
G04 Created by KiCad (PCBNEW 7.0.9) date 2026-02-16 10:34:39*
%MOMM*%
%LPD*%
G01*
G04 APERTURE LIST*
%ADD10C,0.150000*%
G04 APERTURE END LIST*
D10*
X144957142Y-122550057D02*
X144861904Y-122502438D01*
X144861904Y-122502438D02*
X144766666Y-122407200D01*
X144766666Y-122407200D02*
X144623809Y-122264342D01*
X144623809Y-122264342D02*
X144528571Y-122216723D01*
X144528571Y-122216723D02*
X144433333Y-122216723D01*
X144480952Y-122454819D02*
X144385714Y-122407200D01*
X144385714Y-122407200D02*
X144290476Y-122311961D01*
X144290476Y-122311961D02*
X144242857Y-122121485D01*
X144242857Y-122121485D02*
X144242857Y-121788152D01*
X144242857Y-121788152D02*
X144290476Y-121597676D01*
X144290476Y-121597676D02*
X144385714Y-121502438D01*
X144385714Y-121502438D02*
X144480952Y-121454819D01*
X144480952Y-121454819D02*
X144671428Y-121454819D01*
X144671428Y-121454819D02*
X144766666Y-121502438D01*
X144766666Y-121502438D02*
X144861904Y-121597676D01*
X144861904Y-121597676D02*
X144909523Y-121788152D01*
X144909523Y-121788152D02*
X144909523Y-122121485D01*
X144909523Y-122121485D02*
X144861904Y-122311961D01*
X144861904Y-122311961D02*
X144766666Y-122407200D01*
X144766666Y-122407200D02*
X144671428Y-122454819D01*
X144671428Y-122454819D02*
X144480952Y-122454819D01*
X145290476Y-121550057D02*
X145338095Y-121502438D01*
X145338095Y-121502438D02*
X145433333Y-121454819D01*
X145433333Y-121454819D02*
X145671428Y-121454819D01*
X145671428Y-121454819D02*
X145766666Y-121502438D01*
X145766666Y-121502438D02*
X145814285Y-121550057D01*
X145814285Y-121550057D02*
X145861904Y-121645295D01*
X145861904Y-121645295D02*
X145861904Y-121740533D01*
X145861904Y-121740533D02*
X145814285Y-121883390D01*
X145814285Y-121883390D02*
X145242857Y-122454819D01*
X145242857Y-122454819D02*
X145861904Y-122454819D01*
X146052381Y-122550057D02*
X146814285Y-122550057D01*
X147052381Y-122454819D02*
X147052381Y-121788152D01*
X147052381Y-121454819D02*
X147004762Y-121502438D01*
X147004762Y-121502438D02*
X147052381Y-121550057D01*
X147052381Y-121550057D02*
X147100000Y-121502438D01*
X147100000Y-121502438D02*
X147052381Y-121454819D01*
X147052381Y-121454819D02*
X147052381Y-121550057D01*
X147528571Y-121788152D02*
X147528571Y-122454819D01*
X147528571Y-121883390D02*
X147576190Y-121835771D01*
X147576190Y-121835771D02*
X147671428Y-121788152D01*
X147671428Y-121788152D02*
X147814285Y-121788152D01*
X147814285Y-121788152D02*
X147909523Y-121835771D01*
X147909523Y-121835771D02*
X147957142Y-121931009D01*
X147957142Y-121931009D02*
X147957142Y-122454819D01*
X148957142Y-122454819D02*
X148385714Y-122454819D01*
X148671428Y-122454819D02*
X148671428Y-121454819D01*
X148671428Y-121454819D02*
X148576190Y-121597676D01*
X148576190Y-121597676D02*
X148480952Y-121692914D01*
X148480952Y-121692914D02*
X148385714Y-121740533D01*
X144957142Y-129350057D02*
X144861904Y-129302438D01*
X144861904Y-129302438D02*
X144766666Y-129207200D01*
X144766666Y-129207200D02*
X144623809Y-129064342D01*
X144623809Y-129064342D02*
X144528571Y-129016723D01*
X144528571Y-129016723D02*
X144433333Y-129016723D01*
X144480952Y-129254819D02*
X144385714Y-129207200D01*
X144385714Y-129207200D02*
X144290476Y-129111961D01*
X144290476Y-129111961D02*
X144242857Y-128921485D01*
X144242857Y-128921485D02*
X144242857Y-128588152D01*
X144242857Y-128588152D02*
X144290476Y-128397676D01*
X144290476Y-128397676D02*
X144385714Y-128302438D01*
X144385714Y-128302438D02*
X144480952Y-128254819D01*
X144480952Y-128254819D02*
X144671428Y-128254819D01*
X144671428Y-128254819D02*
X144766666Y-128302438D01*
X144766666Y-128302438D02*
X144861904Y-128397676D01*
X144861904Y-128397676D02*
X144909523Y-128588152D01*
X144909523Y-128588152D02*
X144909523Y-128921485D01*
X144909523Y-128921485D02*
X144861904Y-129111961D01*
X144861904Y-129111961D02*
X144766666Y-129207200D01*
X144766666Y-129207200D02*
X144671428Y-129254819D01*
X144671428Y-129254819D02*
X144480952Y-129254819D01*
X145861904Y-129254819D02*
X145290476Y-129254819D01*
X145576190Y-129254819D02*
X145576190Y-128254819D01*
X145576190Y-128254819D02*
X145480952Y-128397676D01*
X145480952Y-128397676D02*
X145385714Y-128492914D01*
X145385714Y-128492914D02*
X145290476Y-128540533D01*
X146052381Y-129350057D02*
X146814285Y-129350057D01*
X147052381Y-129254819D02*
X147052381Y-128588152D01*
X147052381Y-128254819D02*
X147004762Y-128302438D01*
X147004762Y-128302438D02*
X147052381Y-128350057D01*
X147052381Y-128350057D02*
X147100000Y-128302438D01*
X147100000Y-128302438D02*
X147052381Y-128254819D01*
X147052381Y-128254819D02*
X147052381Y-128350057D01*
X147528571Y-128588152D02*
X147528571Y-129254819D01*
X147528571Y-128683390D02*
X147576190Y-128635771D01*
X147576190Y-128635771D02*
X147671428Y-128588152D01*
X147671428Y-128588152D02*
X147814285Y-128588152D01*
X147814285Y-128588152D02*
X147909523Y-128635771D01*
X147909523Y-128635771D02*
X147957142Y-128731009D01*
X147957142Y-128731009D02*
X147957142Y-129254819D01*
X148957142Y-129254819D02*
X148385714Y-129254819D01*
X148671428Y-129254819D02*
X148671428Y-128254819D01*
X148671428Y-128254819D02*
X148576190Y-128397676D01*
X148576190Y-128397676D02*
X148480952Y-128492914D01*
X148480952Y-128492914D02*
X148385714Y-128540533D01*
X162857142Y-129150057D02*
X162761904Y-129102438D01*
X162761904Y-129102438D02*
X162666666Y-129007200D01*
X162666666Y-129007200D02*
X162523809Y-128864342D01*
X162523809Y-128864342D02*
X162428571Y-128816723D01*
X162428571Y-128816723D02*
X162333333Y-128816723D01*
X162380952Y-129054819D02*
X162285714Y-129007200D01*
X162285714Y-129007200D02*
X162190476Y-128911961D01*
X162190476Y-128911961D02*
X162142857Y-128721485D01*
X162142857Y-128721485D02*
X162142857Y-128388152D01*
X162142857Y-128388152D02*
X162190476Y-128197676D01*
X162190476Y-128197676D02*
X162285714Y-128102438D01*
X162285714Y-128102438D02*
X162380952Y-128054819D01*
X162380952Y-128054819D02*
X162571428Y-128054819D01*
X162571428Y-128054819D02*
X162666666Y-128102438D01*
X162666666Y-128102438D02*
X162761904Y-128197676D01*
X162761904Y-128197676D02*
X162809523Y-128388152D01*
X162809523Y-128388152D02*
X162809523Y-128721485D01*
X162809523Y-128721485D02*
X162761904Y-128911961D01*
X162761904Y-128911961D02*
X162666666Y-129007200D01*
X162666666Y-129007200D02*
X162571428Y-129054819D01*
X162571428Y-129054819D02*
X162380952Y-129054819D01*
X163666666Y-128388152D02*
X163666666Y-129054819D01*
X163428571Y-128007200D02*
X163190476Y-128721485D01*
X163190476Y-128721485D02*
X163809523Y-128721485D01*
X163952381Y-129150057D02*
X164714285Y-129150057D01*
X165095238Y-129054819D02*
X165000000Y-129007200D01*
X165000000Y-129007200D02*
X164952381Y-128959580D01*
X164952381Y-128959580D02*
X164904762Y-128864342D01*
X164904762Y-128864342D02*
X164904762Y-128578628D01*
X164904762Y-128578628D02*
X164952381Y-128483390D01*
X164952381Y-128483390D02*
X165000000Y-128435771D01*
X165000000Y-128435771D02*
X165095238Y-128388152D01*
X165095238Y-128388152D02*
X165238095Y-128388152D01*
X165238095Y-128388152D02*
X165333333Y-128435771D01*
X165333333Y-128435771D02*
X165380952Y-128483390D01*
X165380952Y-128483390D02*
X165428571Y-128578628D01*
X165428571Y-128578628D02*
X165428571Y-128864342D01*
X165428571Y-128864342D02*
X165380952Y-128959580D01*
X165380952Y-128959580D02*
X165333333Y-129007200D01*
X165333333Y-129007200D02*
X165238095Y-129054819D01*
X165238095Y-129054819D02*
X165095238Y-129054819D01*
X166285714Y-128388152D02*
X166285714Y-129054819D01*
X165857143Y-128388152D02*
X165857143Y-128911961D01*
X165857143Y-128911961D02*
X165904762Y-129007200D01*
X165904762Y-129007200D02*
X166000000Y-129054819D01*
X166000000Y-129054819D02*
X166142857Y-129054819D01*
X166142857Y-129054819D02*
X166238095Y-129007200D01*
X166238095Y-129007200D02*
X166285714Y-128959580D01*
X166619048Y-128388152D02*
X167000000Y-128388152D01*
X166761905Y-128054819D02*
X166761905Y-128911961D01*
X166761905Y-128911961D02*
X166809524Y-129007200D01*
X166809524Y-129007200D02*
X166904762Y-129054819D01*
X166904762Y-129054819D02*
X167000000Y-129054819D01*
X167857143Y-129054819D02*
X167285715Y-129054819D01*
X167571429Y-129054819D02*
X167571429Y-128054819D01*
X167571429Y-128054819D02*
X167476191Y-128197676D01*
X167476191Y-128197676D02*
X167380953Y-128292914D01*
X167380953Y-128292914D02*
X167285715Y-128340533D01*
X157150057Y-119642857D02*
X157102438Y-119738095D01*
X157102438Y-119738095D02*
X157007200Y-119833333D01*
X157007200Y-119833333D02*
X156864342Y-119976190D01*
X156864342Y-119976190D02*
X156816723Y-120071428D01*
X156816723Y-120071428D02*
X156816723Y-120166666D01*
X157054819Y-120119047D02*
X157007200Y-120214285D01*
X157007200Y-120214285D02*
X156911961Y-120309523D01*
X156911961Y-120309523D02*
X156721485Y-120357142D01*
X156721485Y-120357142D02*
X156388152Y-120357142D01*
X156388152Y-120357142D02*
X156197676Y-120309523D01*
X156197676Y-120309523D02*
X156102438Y-120214285D01*
X156102438Y-120214285D02*
X156054819Y-120119047D01*
X156054819Y-120119047D02*
X156054819Y-119928571D01*
X156054819Y-119928571D02*
X156102438Y-119833333D01*
X156102438Y-119833333D02*
X156197676Y-119738095D01*
X156197676Y-119738095D02*
X156388152Y-119690476D01*
X156388152Y-119690476D02*
X156721485Y-119690476D01*
X156721485Y-119690476D02*
X156911961Y-119738095D01*
X156911961Y-119738095D02*
X157007200Y-119833333D01*
X157007200Y-119833333D02*
X157054819Y-119928571D01*
X157054819Y-119928571D02*
X157054819Y-120119047D01*
X156054819Y-119357142D02*
X156054819Y-118738095D01*
X156054819Y-118738095D02*
X156435771Y-119071428D01*
X156435771Y-119071428D02*
X156435771Y-118928571D01*
X156435771Y-118928571D02*
X156483390Y-118833333D01*
X156483390Y-118833333D02*
X156531009Y-118785714D01*
X156531009Y-118785714D02*
X156626247Y-118738095D01*
X156626247Y-118738095D02*
X156864342Y-118738095D01*
X156864342Y-118738095D02*
X156959580Y-118785714D01*
X156959580Y-118785714D02*
X157007200Y-118833333D01*
X157007200Y-118833333D02*
X157054819Y-118928571D01*
X157054819Y-118928571D02*
X157054819Y-119214285D01*
X157054819Y-119214285D02*
X157007200Y-119309523D01*
X157007200Y-119309523D02*
X156959580Y-119357142D01*
X157150057Y-118547619D02*
X157150057Y-117785714D01*
X157054819Y-117547618D02*
X156388152Y-117547618D01*
X156054819Y-117547618D02*
X156102438Y-117595237D01*
X156102438Y-117595237D02*
X156150057Y-117547618D01*
X156150057Y-117547618D02*
X156102438Y-117499999D01*
X156102438Y-117499999D02*
X156054819Y-117547618D01*
X156054819Y-117547618D02*
X156150057Y-117547618D01*
X156388152Y-117071428D02*
X157054819Y-117071428D01*
X156483390Y-117071428D02*
X156435771Y-117023809D01*
X156435771Y-117023809D02*
X156388152Y-116928571D01*
X156388152Y-116928571D02*
X156388152Y-116785714D01*
X156388152Y-116785714D02*
X156435771Y-116690476D01*
X156435771Y-116690476D02*
X156531009Y-116642857D01*
X156531009Y-116642857D02*
X157054819Y-116642857D01*
X157054819Y-115642857D02*
X157054819Y-116214285D01*
X157054819Y-115928571D02*
X156054819Y-115928571D01*
X156054819Y-115928571D02*
X156197676Y-116023809D01*
X156197676Y-116023809D02*
X156292914Y-116119047D01*
X156292914Y-116119047D02*
X156340533Y-116214285D01*
X142857142Y-126550057D02*
X142761904Y-126502438D01*
X142761904Y-126502438D02*
X142666666Y-126407200D01*
X142666666Y-126407200D02*
X142523809Y-126264342D01*
X142523809Y-126264342D02*
X142428571Y-126216723D01*
X142428571Y-126216723D02*
X142333333Y-126216723D01*
X142380952Y-126454819D02*
X142285714Y-126407200D01*
X142285714Y-126407200D02*
X142190476Y-126311961D01*
X142190476Y-126311961D02*
X142142857Y-126121485D01*
X142142857Y-126121485D02*
X142142857Y-125788152D01*
X142142857Y-125788152D02*
X142190476Y-125597676D01*
X142190476Y-125597676D02*
X142285714Y-125502438D01*
X142285714Y-125502438D02*
X142380952Y-125454819D01*
X142380952Y-125454819D02*
X142571428Y-125454819D01*
X142571428Y-125454819D02*
X142666666Y-125502438D01*
X142666666Y-125502438D02*
X142761904Y-125597676D01*
X142761904Y-125597676D02*
X142809523Y-125788152D01*
X142809523Y-125788152D02*
X142809523Y-126121485D01*
X142809523Y-126121485D02*
X142761904Y-126311961D01*
X142761904Y-126311961D02*
X142666666Y-126407200D01*
X142666666Y-126407200D02*
X142571428Y-126454819D01*
X142571428Y-126454819D02*
X142380952Y-126454819D01*
X143761904Y-126454819D02*
X143190476Y-126454819D01*
X143476190Y-126454819D02*
X143476190Y-125454819D01*
X143476190Y-125454819D02*
X143380952Y-125597676D01*
X143380952Y-125597676D02*
X143285714Y-125692914D01*
X143285714Y-125692914D02*
X143190476Y-125740533D01*
X143952381Y-126550057D02*
X144714285Y-126550057D01*
X145095238Y-126454819D02*
X145000000Y-126407200D01*
X145000000Y-126407200D02*
X144952381Y-126359580D01*
X144952381Y-126359580D02*
X144904762Y-126264342D01*
X144904762Y-126264342D02*
X144904762Y-125978628D01*
X144904762Y-125978628D02*
X144952381Y-125883390D01*
X144952381Y-125883390D02*
X145000000Y-125835771D01*
X145000000Y-125835771D02*
X145095238Y-125788152D01*
X145095238Y-125788152D02*
X145238095Y-125788152D01*
X145238095Y-125788152D02*
X145333333Y-125835771D01*
X145333333Y-125835771D02*
X145380952Y-125883390D01*
X145380952Y-125883390D02*
X145428571Y-125978628D01*
X145428571Y-125978628D02*
X145428571Y-126264342D01*
X145428571Y-126264342D02*
X145380952Y-126359580D01*
X145380952Y-126359580D02*
X145333333Y-126407200D01*
X145333333Y-126407200D02*
X145238095Y-126454819D01*
X145238095Y-126454819D02*
X145095238Y-126454819D01*
X146285714Y-125788152D02*
X146285714Y-126454819D01*
X145857143Y-125788152D02*
X145857143Y-126311961D01*
X145857143Y-126311961D02*
X145904762Y-126407200D01*
X145904762Y-126407200D02*
X146000000Y-126454819D01*
X146000000Y-126454819D02*
X146142857Y-126454819D01*
X146142857Y-126454819D02*
X146238095Y-126407200D01*
X146238095Y-126407200D02*
X146285714Y-126359580D01*
X146619048Y-125788152D02*
X147000000Y-125788152D01*
X146761905Y-125454819D02*
X146761905Y-126311961D01*
X146761905Y-126311961D02*
X146809524Y-126407200D01*
X146809524Y-126407200D02*
X146904762Y-126454819D01*
X146904762Y-126454819D02*
X147000000Y-126454819D01*
X147857143Y-126454819D02*
X147285715Y-126454819D01*
X147571429Y-126454819D02*
X147571429Y-125454819D01*
X147571429Y-125454819D02*
X147476191Y-125597676D01*
X147476191Y-125597676D02*
X147380953Y-125692914D01*
X147380953Y-125692914D02*
X147285715Y-125740533D01*
X154350057Y-119742857D02*
X154302438Y-119838095D01*
X154302438Y-119838095D02*
X154207200Y-119933333D01*
X154207200Y-119933333D02*
X154064342Y-120076190D01*
X154064342Y-120076190D02*
X154016723Y-120171428D01*
X154016723Y-120171428D02*
X154016723Y-120266666D01*
X154254819Y-120219047D02*
X154207200Y-120314285D01*
X154207200Y-120314285D02*
X154111961Y-120409523D01*
X154111961Y-120409523D02*
X153921485Y-120457142D01*
X153921485Y-120457142D02*
X153588152Y-120457142D01*
X153588152Y-120457142D02*
X153397676Y-120409523D01*
X153397676Y-120409523D02*
X153302438Y-120314285D01*
X153302438Y-120314285D02*
X153254819Y-120219047D01*
X153254819Y-120219047D02*
X153254819Y-120028571D01*
X153254819Y-120028571D02*
X153302438Y-119933333D01*
X153302438Y-119933333D02*
X153397676Y-119838095D01*
X153397676Y-119838095D02*
X153588152Y-119790476D01*
X153588152Y-119790476D02*
X153921485Y-119790476D01*
X153921485Y-119790476D02*
X154111961Y-119838095D01*
X154111961Y-119838095D02*
X154207200Y-119933333D01*
X154207200Y-119933333D02*
X154254819Y-120028571D01*
X154254819Y-120028571D02*
X154254819Y-120219047D01*
X153350057Y-119409523D02*
X153302438Y-119361904D01*
X153302438Y-119361904D02*
X153254819Y-119266666D01*
X153254819Y-119266666D02*
X153254819Y-119028571D01*
X153254819Y-119028571D02*
X153302438Y-118933333D01*
X153302438Y-118933333D02*
X153350057Y-118885714D01*
X153350057Y-118885714D02*
X153445295Y-118838095D01*
X153445295Y-118838095D02*
X153540533Y-118838095D01*
X153540533Y-118838095D02*
X153683390Y-118885714D01*
X153683390Y-118885714D02*
X154254819Y-119457142D01*
X154254819Y-119457142D02*
X154254819Y-118838095D01*
X154350057Y-118647619D02*
X154350057Y-117885714D01*
X154254819Y-117504761D02*
X154207200Y-117599999D01*
X154207200Y-117599999D02*
X154159580Y-117647618D01*
X154159580Y-117647618D02*
X154064342Y-117695237D01*
X154064342Y-117695237D02*
X153778628Y-117695237D01*
X153778628Y-117695237D02*
X153683390Y-117647618D01*
X153683390Y-117647618D02*
X153635771Y-117599999D01*
X153635771Y-117599999D02*
X153588152Y-117504761D01*
X153588152Y-117504761D02*
X153588152Y-117361904D01*
X153588152Y-117361904D02*
X153635771Y-117266666D01*
X153635771Y-117266666D02*
X153683390Y-117219047D01*
X153683390Y-117219047D02*
X153778628Y-117171428D01*
X153778628Y-117171428D02*
X154064342Y-117171428D01*
X154064342Y-117171428D02*
X154159580Y-117219047D01*
X154159580Y-117219047D02*
X154207200Y-117266666D01*
X154207200Y-117266666D02*
X154254819Y-117361904D01*
X154254819Y-117361904D02*
X154254819Y-117504761D01*
X153588152Y-116314285D02*
X154254819Y-116314285D01*
X153588152Y-116742856D02*
X154111961Y-116742856D01*
X154111961Y-116742856D02*
X154207200Y-116695237D01*
X154207200Y-116695237D02*
X154254819Y-116599999D01*
X154254819Y-116599999D02*
X154254819Y-116457142D01*
X154254819Y-116457142D02*
X154207200Y-116361904D01*
X154207200Y-116361904D02*
X154159580Y-116314285D01*
X153588152Y-115980951D02*
X153588152Y-115599999D01*
X153254819Y-115838094D02*
X154111961Y-115838094D01*
X154111961Y-115838094D02*
X154207200Y-115790475D01*
X154207200Y-115790475D02*
X154254819Y-115695237D01*
X154254819Y-115695237D02*
X154254819Y-115599999D01*
X154254819Y-114742856D02*
X154254819Y-115314284D01*
X154254819Y-115028570D02*
X153254819Y-115028570D01*
X153254819Y-115028570D02*
X153397676Y-115123808D01*
X153397676Y-115123808D02*
X153492914Y-115219046D01*
X153492914Y-115219046D02*
X153540533Y-115314284D01*
X161857142Y-123150057D02*
X161761904Y-123102438D01*
X161761904Y-123102438D02*
X161666666Y-123007200D01*
X161666666Y-123007200D02*
X161523809Y-122864342D01*
X161523809Y-122864342D02*
X161428571Y-122816723D01*
X161428571Y-122816723D02*
X161333333Y-122816723D01*
X161380952Y-123054819D02*
X161285714Y-123007200D01*
X161285714Y-123007200D02*
X161190476Y-122911961D01*
X161190476Y-122911961D02*
X161142857Y-122721485D01*
X161142857Y-122721485D02*
X161142857Y-122388152D01*
X161142857Y-122388152D02*
X161190476Y-122197676D01*
X161190476Y-122197676D02*
X161285714Y-122102438D01*
X161285714Y-122102438D02*
X161380952Y-122054819D01*
X161380952Y-122054819D02*
X161571428Y-122054819D01*
X161571428Y-122054819D02*
X161666666Y-122102438D01*
X161666666Y-122102438D02*
X161761904Y-122197676D01*
X161761904Y-122197676D02*
X161809523Y-122388152D01*
X161809523Y-122388152D02*
X161809523Y-122721485D01*
X161809523Y-122721485D02*
X161761904Y-122911961D01*
X161761904Y-122911961D02*
X161666666Y-123007200D01*
X161666666Y-123007200D02*
X161571428Y-123054819D01*
X161571428Y-123054819D02*
X161380952Y-123054819D01*
X162142857Y-122054819D02*
X162761904Y-122054819D01*
X162761904Y-122054819D02*
X162428571Y-122435771D01*
X162428571Y-122435771D02*
X162571428Y-122435771D01*
X162571428Y-122435771D02*
X162666666Y-122483390D01*
X162666666Y-122483390D02*
X162714285Y-122531009D01*
X162714285Y-122531009D02*
X162761904Y-122626247D01*
X162761904Y-122626247D02*
X162761904Y-122864342D01*
X162761904Y-122864342D02*
X162714285Y-122959580D01*
X162714285Y-122959580D02*
X162666666Y-123007200D01*
X162666666Y-123007200D02*
X162571428Y-123054819D01*
X162571428Y-123054819D02*
X162285714Y-123054819D01*
X162285714Y-123054819D02*
X162190476Y-123007200D01*
X162190476Y-123007200D02*
X162142857Y-122959580D01*
X162952381Y-123150057D02*
X163714285Y-123150057D01*
X164095238Y-123054819D02*
X164000000Y-123007200D01*
X164000000Y-123007200D02*
X163952381Y-122959580D01*
X163952381Y-122959580D02*
X163904762Y-122864342D01*
X163904762Y-122864342D02*
X163904762Y-122578628D01*
X163904762Y-122578628D02*
X163952381Y-122483390D01*
X163952381Y-122483390D02*
X164000000Y-122435771D01*
X164000000Y-122435771D02*
X164095238Y-122388152D01*
X164095238Y-122388152D02*
X164238095Y-122388152D01*
X164238095Y-122388152D02*
X164333333Y-122435771D01*
X164333333Y-122435771D02*
X164380952Y-122483390D01*
X164380952Y-122483390D02*
X164428571Y-122578628D01*
X164428571Y-122578628D02*
X164428571Y-122864342D01*
X164428571Y-122864342D02*
X164380952Y-122959580D01*
X164380952Y-122959580D02*
X164333333Y-123007200D01*
X164333333Y-123007200D02*
X164238095Y-123054819D01*
X164238095Y-123054819D02*
X164095238Y-123054819D01*
X165285714Y-122388152D02*
X165285714Y-123054819D01*
X164857143Y-122388152D02*
X164857143Y-122911961D01*
X164857143Y-122911961D02*
X164904762Y-123007200D01*
X164904762Y-123007200D02*
X165000000Y-123054819D01*
X165000000Y-123054819D02*
X165142857Y-123054819D01*
X165142857Y-123054819D02*
X165238095Y-123007200D01*
X165238095Y-123007200D02*
X165285714Y-122959580D01*
X165619048Y-122388152D02*
X166000000Y-122388152D01*
X165761905Y-122054819D02*
X165761905Y-122911961D01*
X165761905Y-122911961D02*
X165809524Y-123007200D01*
X165809524Y-123007200D02*
X165904762Y-123054819D01*
X165904762Y-123054819D02*
X166000000Y-123054819D01*
X166857143Y-123054819D02*
X166285715Y-123054819D01*
X166571429Y-123054819D02*
X166571429Y-122054819D01*
X166571429Y-122054819D02*
X166476191Y-122197676D01*
X166476191Y-122197676D02*
X166380953Y-122292914D01*
X166380953Y-122292914D02*
X166285715Y-122340533D01*
X161757142Y-125150057D02*
X161661904Y-125102438D01*
X161661904Y-125102438D02*
X161566666Y-125007200D01*
X161566666Y-125007200D02*
X161423809Y-124864342D01*
X161423809Y-124864342D02*
X161328571Y-124816723D01*
X161328571Y-124816723D02*
X161233333Y-124816723D01*
X161280952Y-125054819D02*
X161185714Y-125007200D01*
X161185714Y-125007200D02*
X161090476Y-124911961D01*
X161090476Y-124911961D02*
X161042857Y-124721485D01*
X161042857Y-124721485D02*
X161042857Y-124388152D01*
X161042857Y-124388152D02*
X161090476Y-124197676D01*
X161090476Y-124197676D02*
X161185714Y-124102438D01*
X161185714Y-124102438D02*
X161280952Y-124054819D01*
X161280952Y-124054819D02*
X161471428Y-124054819D01*
X161471428Y-124054819D02*
X161566666Y-124102438D01*
X161566666Y-124102438D02*
X161661904Y-124197676D01*
X161661904Y-124197676D02*
X161709523Y-124388152D01*
X161709523Y-124388152D02*
X161709523Y-124721485D01*
X161709523Y-124721485D02*
X161661904Y-124911961D01*
X161661904Y-124911961D02*
X161566666Y-125007200D01*
X161566666Y-125007200D02*
X161471428Y-125054819D01*
X161471428Y-125054819D02*
X161280952Y-125054819D01*
X162566666Y-124388152D02*
X162566666Y-125054819D01*
X162328571Y-124007200D02*
X162090476Y-124721485D01*
X162090476Y-124721485D02*
X162709523Y-124721485D01*
X162852381Y-125150057D02*
X163614285Y-125150057D01*
X163852381Y-125054819D02*
X163852381Y-124388152D01*
X163852381Y-124054819D02*
X163804762Y-124102438D01*
X163804762Y-124102438D02*
X163852381Y-124150057D01*
X163852381Y-124150057D02*
X163900000Y-124102438D01*
X163900000Y-124102438D02*
X163852381Y-124054819D01*
X163852381Y-124054819D02*
X163852381Y-124150057D01*
X164328571Y-124388152D02*
X164328571Y-125054819D01*
X164328571Y-124483390D02*
X164376190Y-124435771D01*
X164376190Y-124435771D02*
X164471428Y-124388152D01*
X164471428Y-124388152D02*
X164614285Y-124388152D01*
X164614285Y-124388152D02*
X164709523Y-124435771D01*
X164709523Y-124435771D02*
X164757142Y-124531009D01*
X164757142Y-124531009D02*
X164757142Y-125054819D01*
X165757142Y-125054819D02*
X165185714Y-125054819D01*
X165471428Y-125054819D02*
X165471428Y-124054819D01*
X165471428Y-124054819D02*
X165376190Y-124197676D01*
X165376190Y-124197676D02*
X165280952Y-124292914D01*
X165280952Y-124292914D02*
X165185714Y-124340533D01*
M02*
